M48
;Layer_Color=9474304
;FILE_FORMAT=2:5
INCH,LZ
;TYPE=PLATED
T1F00S00C0.02800
T2F00S00C0.03000
T3F00S00C0.03150
T4F00S00C0.12598
%
T01
X01601Y00275
T02
X011Y001
X012
X013
X014
X015
X016
X017
X018
X02
X021
X022
X023
X024
X025
X007Y01176
Y01273
X00601Y01276
Y01375
X00701
Y01476
X006Y01475
X00601Y01176
X0074Y02
X0084
X0094
X0104
X0114
X0124
X0134
X0144
X0154
X0164
X018
X019
X02
X021
X022
X023
X024
X025
T03
X008Y01325
X0099685Y01325
T04
X0055Y001
X026Y003
Y014
X006Y02
M30
